<svg xmlns="http://www.w3.org/2000/svg" viewBox="0 0 136 136" color="#E5E9F0" fill="#011627"><rect width="136" height="136" rx="3" ry="3"/><rect fill="currentColor" x="14" y="14" width="108" height="108" rx="3" ry="3"/><path d="M20 20h96v96H20z"/><path d="M13 48.8h110v38.7H13z"/><path fill="currentColor" d="M30 57v-4.77H10.3V57h10.34v14.36c0 4.27-2.47 7.1-6.52 7.1-4.28 0-6.84-2.83-6.84-7.19H1.83c0 7.33 4.64 12.23 11.93 12.23 7.56 0 12.38-4.85 12.38-12.14V57zm34.3 21.06h-3.47L48.9 52.23H37.12V57h4.5L31.8 78.06h-3.01v4.77h12.87v-4.77h-4.09l2.02-4.54h13.5l2.07 4.54h-4.5v4.77H64.3zm-13.32-9.13h-9.32l4.64-10.26zm45.89-2.89h-15.7v4.64h10.26c-1.26 4.41-5.04 7.56-10.04 7.56-6.12 0-10.48-4.77-10.48-10.71 0-6.34 4.72-10.75 10.75-10.75 4.77 0 8.78 2.69 9.95 6.92h5.08V52.23h-5.04v3.33c-2.38-2.56-5.94-3.96-10.3-3.96-8.64 0-16.11 6.71-16.11 15.93 0 8.82 6.7 15.93 15.88 15.93 4.95 0 8.78-2.03 11.3-5.26l.22 4.63h4.23zm31.14 4.91c-1.12 4.63-4.9 7.34-9.63 7.34-5.98 0-10.71-4.42-10.71-10.76s4.68-10.75 10.67-10.75c4.77 0 8.82 2.69 9.99 7.33h5.04V52.23h-5.04v3.15c-2.48-2.47-6.08-3.78-10.31-3.78-8.59 0-16.02 6.71-16.02 15.93 0 9.22 7.56 15.93 16.38 15.93 7.61 0 13.82-4.95 15.22-12.51z"/></svg>